<?xml version="1.0" standalone="no"?><!DOCTYPE svg PUBLIC "-//W3C//DTD SVG 1.1//EN" "http://www.w3.org/Graphics/SVG/1.1/DTD/svg11.dtd"><svg t="1676426179760" class="icon" viewBox="0 0 1024 1024" version="1.1" xmlns="http://www.w3.org/2000/svg" p-id="1563" width="200" height="200" xmlns:xlink="http://www.w3.org/1999/xlink"><path d="M594.432 486.912H467.456l-37.888 172.032h92.672l3.072-6.656-22.528 160.256 192-220.672-144.384 1.024 44.032-105.984z" fill="#096dd9" p-id="1564"></path><path d="M884.736 16.384H139.264a38.4 38.4 0 0 0-36.864 38.4v914.432a38.4 38.4 0 0 0 38.4 38.4h743.936a38.4 38.4 0 0 0 36.864-38.4V54.784a38.4 38.4 0 0 0-36.864-38.4z m-38.4 914.432H177.664V93.184h668.672v837.632z" fill="#096dd9" p-id="1565"></path><path d="M354.304 365.056h314.88a80.896 80.896 0 1 0 0-161.792H354.304a80.896 80.896 0 1 0 0 161.792z m0-109.056h314.88a29.696 29.696 0 1 1 0 59.392H354.304a29.696 29.696 0 1 1 0-59.392z" fill="#096dd9" p-id="1566"></path></svg>